# xmcd
#
# Track frame offsets:
#	150
#	16355
#	32656
#	47166
#	62193
#	78581
#	92343
#	107518
#	126387
#	144358
#	168718
#	185125
#	203834
#	222017
#	240092
#	254558
#	268226
#	290411
#	304366
#	321461
#	340606
#
# Disc length: 4793 seconds
#
# Revision: 1
# Processed by: cddbd v1.5.1PL0 Copyright (c) Steve Scherf et al.
# Submitted via: audiograbber 1.83.01
#
DISCID=3b12b715
DTITLE=Alabama - Adam's Best Of
DYEAR=1900
DGENRE=
TTITLE0=Close Enough To Perfect
TTITLE1=Feels So Right
TTITLE2=Old Flame
TTITLE3=Love In The First Degree
TTITLE4=When We Make Love
TTITLE5=Face to Face
TTITLE6=40 Hour Week
TTITLE7=Why Lady Why
TTITLE8=Lady Down On Love
TTITLE9=Dixieland Delight
TTITLE10=Closer You Get
TTITLE11=Angels Among Us
TTITLE12=Roll On (Eighteen Wheeler)
TTITLE13=Fallin' Again
TTITLE14=Song Of The South
TTITLE15=High Cotton
TTITLE16=Take Me Down
TTITLE17=Tennessee River
TTITLE18=If Your Gonna Play In Texas (You Gotta Have A Fiddle In The Band)
TTITLE19=There's No Way
TTITLE20=Mountain Music
EXTD=
EXTT0=
EXTT1=
EXTT2=
EXTT3=
EXTT4=
EXTT5=
EXTT6=
EXTT7=
EXTT8=
EXTT9=
EXTT10=
EXTT11=
EXTT12=
EXTT13=
EXTT14=
EXTT15=
EXTT16=
EXTT17=
EXTT18=
EXTT19=
EXTT20=
PLAYORDER=
